<svg xmlns="http://www.w3.org/2000/svg" width="640" height="480" xml:space="preserve">
    <rect width="100%" height="100%" fill="rgba(95, 132, 90, 0)"/>
    <g>
        <text xml:space="preserve" font-family="'Open Sans', sans-serif" font-size="47" style="stroke:none;stroke-width:1;stroke-dasharray:none;stroke-linecap:butt;stroke-dashoffset:0;stroke-linejoin:miter;stroke-miterlimit:4;fill:#eadac0;fill-rule:nonzero;opacity:1;white-space:pre" transform="translate(387.66 230.99)"><tspan x="-141.16" y="-17.17" style="font-weight:700">Food</tspan><tspan x="-141.16" y="46.2" style="font-size:49px;font-style:italic">Commerce</tspan></text>
    </g>
    <path style="stroke:#000;stroke-width:1;stroke-dasharray:none;stroke-linecap:round;stroke-dashoffset:0;stroke-linejoin:round;stroke-miterlimit:10;fill:none;fill-rule:nonzero;opacity:1" d="M210.332 190.333h.002" stroke-linecap="round"/>
    <path style="stroke:#06fc75;stroke-width:1;stroke-dasharray:none;stroke-linecap:round;stroke-dashoffset:0;stroke-linejoin:round;stroke-miterlimit:10;fill:none;fill-rule:nonzero;opacity:1" d="M113.332 215.333h.002M129.332 228.333h.002" stroke-linecap="round"/>
    <path style="stroke:#1931b7;stroke-width:1;stroke-dasharray:none;stroke-linecap:round;stroke-dashoffset:0;stroke-linejoin:round;stroke-miterlimit:10;fill:none;fill-rule:nonzero;opacity:1" d="M206.332 257.333h.002" stroke-linecap="round"/>
    <path style="stroke:#0bf83f;stroke-width:1;stroke-dasharray:none;stroke-linecap:round;stroke-dashoffset:0;stroke-linejoin:round;stroke-miterlimit:10;fill:none;fill-rule:nonzero;opacity:1" d="M284.332 205.333h.002M292.332 207.333h.002M290.332 206.333h.002M290.332 206.333h.002M290.332 206.333h.002M290.332 206.333h.002M381.332 136.333h.002M229.332 296.333h.002M129.332 176.333h.002M285.332 156.333h.002" stroke-linecap="round"/>
    <path style="stroke:none;stroke-width:1;stroke-dasharray:none;stroke-linecap:butt;stroke-dashoffset:0;stroke-linejoin:miter;stroke-miterlimit:4;fill:#c32105;fill-rule:nonzero;opacity:1" transform="matrix(.46 0 0 .46 77.787 140.247)" d="M181.807 191.801v73.722a8 8 0 0 1-16 0v-73.722a8 8 0 0 1 16 0zm164.058 116.887a7.999 7.999 0 0 1-6.254 12.988H8a8 8 0 0 1-6.254-12.988l56.927-71.371a64.01 64.01 0 0 1-19.767-21.42l-14.293 17.919h9.282a8 8 0 0 1 0 16H8a8 8 0 0 1-6.254-12.988l30.449-38.177a63.114 63.114 0 0 1-1.601-14.12c0-35.095 28.547-63.647 63.638-63.662l73.316-91.922a8 8 0 0 1 12.508-.001l49.316 61.829 17.771-22.177c6.348-7.925 15.436-12.907 25.588-14.027 10.166-1.12 20.108 1.761 28.033 8.111.064.052.128.104.19.157 16.245 13.184 18.829 37.115 5.73 53.468a8.001 8.001 0 0 1-12.488-10.003c7.635-9.531 6.093-23.496-3.437-31.132a6.25 6.25 0 0 1-.146-.12c-4.566-3.596-10.285-5.223-16.128-4.577-5.903.651-11.18 3.537-14.855 8.127l-23.979 29.924c-.03.039-.062.077-.093.115l-24.684 30.804 18.424 23.098 21.205-26.463c13.151-16.413 37.207-19.067 53.624-5.918.052.042.103.083.153.126 16.28 13.181 18.876 37.138 5.764 53.501l-3.25 4.056 39.069 48.982a7.999 7.999 0 0 1-6.254 12.988h-23.803a8 8 0 0 1 0-16h7.188l-26.458-33.171-18.467 23.045 67.796 84.999zM239.527 175.367l28.316 35.5 22.373-27.919a9.1 9.1 0 0 1 .178-.222l7.165-8.941c7.636-9.529 6.096-23.495-3.435-31.133l-.113-.093c-9.528-7.53-23.415-5.966-31.021 3.526l-23.463 29.282zm-126.95-51.839a63.035 63.035 0 0 1 25.237 14.562l29.734-37.281a8 8 0 0 1 12.508-.001l20.591 25.815 18.469-23.047-45.313-56.811-61.226 76.763zM68.69 224.758l59.102-74.101c-8.096-8.045-18.714-12.877-30.168-13.672a48.324 48.324 0 0 0-3.368-.116c-26.28 0-47.66 21.381-47.66 47.662-.001 16.36 8.501 31.553 22.094 40.227zm254.307 80.918-61.307-76.864a9.885 9.885 0 0 1-.24-.301l-38.313-48.035a8.31 8.31 0 0 1-.22-.276l-28.467-35.688a6.573 6.573 0 0 1-.151-.189l-20.496-25.696-29.211 36.626a8.89 8.89 0 0 1-.213.267L24.614 305.676h298.383zm-195.291-87.413a8 8 0 0 0-8 8v39.261a8 8 0 0 0 16 0v-39.261a8 8 0 0 0-8-8zm92.197 0a8 8 0 0 0-8 8v39.261a8 8 0 0 0 16 0v-39.261a8 8 0 0 0-8-8z"/>
    <path style="stroke:#000;stroke-width:2;stroke-dasharray:none;stroke-linecap:butt;stroke-dashoffset:0;stroke-linejoin:miter;stroke-miterlimit:4;fill:#000;fill-rule:nonzero;opacity:1" vector-effect="non-scaling-stroke" d="M0 0" transform="translate(136.33 175.33)"/>
</svg>
