<?xml version="1.0" encoding="iso-8859-1"?>
<!-- Uploaded to: SVG Repo, www.svgrepo.com, Generator: SVG Repo Mixer Tools -->
<svg fill="#000000" height="800px" width="800px" version="1.1" id="Layer_1" xmlns="http://www.w3.org/2000/svg" xmlns:xlink="http://www.w3.org/1999/xlink" 
	 viewBox="0 0 512 512" xml:space="preserve">
<g>
	<g>
		<path d="M437.019,133.534C388.668,85.182,324.38,58.553,256,58.553S123.333,85.182,74.981,133.534
			C26.628,181.886,0,246.173,0,314.553v98.043c0,22.526,18.325,40.851,40.851,40.851c4.512,0,8.17-3.657,8.17-8.17
			s-3.658-8.17-8.17-8.17c-13.516,0-24.511-10.996-24.511-24.511c0-132.149,107.51-239.66,239.66-239.66
			s239.66,107.51,239.66,239.66c0,13.515-10.995,24.511-24.511,24.511H73.532c-4.512,0-8.17,3.657-8.17,8.17s3.658,8.17,8.17,8.17
			h397.617c22.526,0,40.851-18.325,40.851-40.851v-98.043C512,246.173,485.372,181.886,437.019,133.534z M495.66,322.258
			c-12.665-33.644-32.461-64.501-58.64-90.682C388.668,183.224,324.38,156.596,256,156.596s-132.667,26.628-181.019,74.981
			c-26.18,26.181-45.975,57.038-58.64,90.682v-7.705c0-132.149,107.51-239.66,239.66-239.66s239.66,107.51,239.66,239.66V322.258z"
			/>
	</g>
</g>
<g>
	<g>
		<path d="M425.768,182.676c-0.681-9.822-4.892-19.067-11.858-26.034c-7.383-7.381-17.305-11.594-27.587-11.931
			c-2.987-9.844-9.623-18.339-18.664-23.559c-9.041-5.22-19.716-6.718-29.734-4.384c-5.434-8.736-14.042-15.225-24.126-17.925
			c-10.083-2.704-20.783-1.387-29.856,3.461c-7.51-7.032-17.504-11.071-27.943-11.071c-10.439,0-20.433,4.039-27.943,11.07
			c-9.074-4.848-19.774-6.162-29.856-3.461c-10.083,2.701-18.692,9.191-24.126,17.925c-10.018-2.333-20.694-0.836-29.734,4.384
			c-9.041,5.219-15.677,13.715-18.664,23.559c-10.281,0.339-20.204,4.549-27.587,11.931c-6.966,6.966-11.178,16.213-11.859,26.036
			c-0.313,4.501,3.084,8.403,7.585,8.716c4.506,0.295,8.403-3.084,8.716-7.586c0.409-5.889,2.934-11.433,7.111-15.611
			c5.556-5.557,13.516-8.114,21.297-6.851c2.221,0.365,4.499-0.209,6.287-1.582c1.788-1.373,2.929-3.422,3.155-5.662
			c0.79-7.842,5.324-14.869,12.128-18.798c6.804-3.928,15.155-4.341,22.344-1.105c2.055,0.927,4.401,0.963,6.482,0.099
			c2.082-0.862,3.715-2.546,4.513-4.653c2.793-7.372,8.992-12.985,16.58-15.019c7.59-2.029,15.764-0.27,21.868,4.717
			c1.745,1.425,4,2.065,6.235,1.772c2.234-0.294,4.247-1.497,5.565-3.326c4.606-6.397,12.046-10.216,19.903-10.216
			c7.857,0,15.297,3.819,19.903,10.216c1.316,1.829,3.33,3.032,5.564,3.326c2.233,0.293,4.49-0.347,6.236-1.772
			c6.104-4.987,14.276-6.749,21.868-4.717c7.589,2.034,13.787,7.648,16.58,15.019c0.799,2.108,2.431,3.791,4.514,4.653
			c2.082,0.863,4.427,0.828,6.482-0.098c7.188-3.24,15.539-2.825,22.344,1.104c6.804,3.928,11.338,10.956,12.128,18.798
			c0.227,2.242,1.368,4.291,3.156,5.662c1.787,1.372,4.06,1.945,6.287,1.582c7.779-1.271,15.74,1.294,21.296,6.851
			c4.177,4.177,6.703,9.721,7.111,15.611c0.298,4.31,3.887,7.605,8.142,7.605c0.19,0,0.381-0.007,0.574-0.02
			C422.684,191.079,426.081,187.177,425.768,182.676z"/>
	</g>
</g>
<g>
	<g>
		<circle cx="54.468" cy="371.745" r="8.17"/>
	</g>
</g>
<g>
	<g>
		<circle cx="87.149" cy="404.426" r="8.17"/>
	</g>
</g>
<g>
	<g>
		<circle cx="430.298" cy="371.745" r="8.17"/>
	</g>
</g>
<g>
	<g>
		<circle cx="364.936" cy="306.383" r="8.17"/>
	</g>
</g>
<g>
	<g>
		<circle cx="168.851" cy="273.702" r="8.17"/>
	</g>
</g>
<g>
	<g>
		<circle cx="332.255" cy="339.064" r="8.17"/>
	</g>
</g>
</svg>